<svg width="100" height="100" b-6nsejuawu0=""><g transform="translate(0, 0)" b-6nsejuawu0=""><path class="link" d="M21,50H31V25H41" b-6nsejuawu0=""></path><path class="link" d="M21,50H31V75H41" b-6nsejuawu0=""></path><path class="link" d="M41,25H51V12.5H61" b-6nsejuawu0=""></path><path class="link" d="M41,25H51V37.5H61" b-6nsejuawu0=""></path><path class="link" d="M61,12.5H71V8.333333333333329H81" b-6nsejuawu0=""></path><path class="link" d="M61,12.5H71V16.666666666666664H81" b-6nsejuawu0=""></path><path class="link" d="M61,37.5H71V33.33333333333333H81" b-6nsejuawu0=""></path><path class="link" d="M61,37.5H71V41.66666666666667H81" b-6nsejuawu0=""></path><path class="link" d="M41,75H51V62.5H61" b-6nsejuawu0=""></path><path class="link" d="M41,75H51V87.5H61" b-6nsejuawu0=""></path><path class="link" d="M61,62.5H71V58.333333333333336H81" b-6nsejuawu0=""></path><path class="link" d="M61,62.5H71V66.66666666666666H81" b-6nsejuawu0=""></path><path class="link" d="M61,87.5H71V83.33333333333334H81" b-6nsejuawu0=""></path><path class="link" d="M61,87.5H71V91.66666666666666H81" b-6nsejuawu0=""></path><g class="node" transform="translate(21,50)" b-6nsejuawu0=""><circle r="3" style="fill: rgb(255, 255, 255);" b-6nsejuawu0=""></circle><text dy="-8" text-anchor="middle" style="fill-opacity: 1;" b-6nsejuawu0=""></text></g><g class="node" transform="translate(41,25)" b-6nsejuawu0=""><circle r="3" style="fill: rgb(255, 255, 255);" b-6nsejuawu0=""></circle><text dy="14" text-anchor="middle" style="fill-opacity: 1;" b-6nsejuawu0=""></text></g><g class="node" transform="translate(61,12.5)" b-6nsejuawu0=""><circle r="3" style="fill: rgb(255, 255, 255);" b-6nsejuawu0=""></circle><text dy="14" text-anchor="middle" style="fill-opacity: 1;" b-6nsejuawu0=""></text></g><g class="node" transform="translate(81,8.333333015441895)" b-6nsejuawu0=""><circle r="3" style="fill: rgb(255, 255, 255);" b-6nsejuawu0=""></circle><text dy="14" text-anchor="middle" style="fill-opacity: 1;" b-6nsejuawu0=""></text></g><g class="node" transform="translate(81,16.66666603088379)" b-6nsejuawu0=""><circle r="3" style="fill: rgb(255, 255, 255);" b-6nsejuawu0=""></circle><text dy="14" text-anchor="middle" style="fill-opacity: 1;" b-6nsejuawu0=""></text></g><g class="node" transform="translate(61,37.5)" b-6nsejuawu0=""><circle r="3" style="fill: rgb(255, 255, 255);" b-6nsejuawu0=""></circle><text dy="14" text-anchor="middle" style="fill-opacity: 1;" b-6nsejuawu0=""></text></g><g class="node" transform="translate(81,33.33333206176758)" b-6nsejuawu0=""><circle r="3" style="fill: rgb(255, 255, 255);" b-6nsejuawu0=""></circle><text dy="14" text-anchor="middle" style="fill-opacity: 1;" b-6nsejuawu0=""></text></g><g class="node" transform="translate(81,41.66666793823242)" b-6nsejuawu0=""><circle r="3" style="fill: rgb(255, 255, 255);" b-6nsejuawu0=""></circle><text dy="14" text-anchor="middle" style="fill-opacity: 1;" b-6nsejuawu0=""></text></g><g class="node" transform="translate(41,75)" b-6nsejuawu0=""><circle r="3" style="fill: rgb(255, 255, 255);" b-6nsejuawu0=""></circle><text dy="14" text-anchor="middle" style="fill-opacity: 1;" b-6nsejuawu0=""></text></g><g class="node" transform="translate(61,62.5)" b-6nsejuawu0=""><circle r="3" style="fill: rgb(255, 255, 255);" b-6nsejuawu0=""></circle><text dy="14" text-anchor="middle" style="fill-opacity: 1;" b-6nsejuawu0=""></text></g><g class="node" transform="translate(81,58.33333206176758)" b-6nsejuawu0=""><circle r="3" style="fill: rgb(255, 255, 255);" b-6nsejuawu0=""></circle><text dy="14" text-anchor="middle" style="fill-opacity: 1;" b-6nsejuawu0=""></text></g><g class="node" transform="translate(81,66.66666412353516)" b-6nsejuawu0=""><circle r="3" style="fill: rgb(255, 255, 255);" b-6nsejuawu0=""></circle><text dy="14" text-anchor="middle" style="fill-opacity: 1;" b-6nsejuawu0=""></text></g><g class="node" transform="translate(61,87.5)" b-6nsejuawu0=""><circle r="3" style="fill: rgb(255, 255, 255);" b-6nsejuawu0=""></circle><text dy="14" text-anchor="middle" style="fill-opacity: 1;" b-6nsejuawu0=""></text></g><g class="node" transform="translate(81,83.33333587646484)" b-6nsejuawu0=""><circle r="3" style="fill: rgb(255, 255, 255);" b-6nsejuawu0=""></circle><text dy="14" text-anchor="middle" style="fill-opacity: 1;" b-6nsejuawu0=""></text></g><g class="node" transform="translate(81,91.66666412353516)" b-6nsejuawu0=""><circle r="3" style="fill: rgb(255, 255, 255);" b-6nsejuawu0=""></circle><text dy="14" text-anchor="middle" style="fill-opacity: 1;" b-6nsejuawu0=""></text></g></g></svg>